<mxfile host="app.diagrams.net" agent="Mozilla/5.0 (Windows NT 10.0; Win64; x64) AppleWebKit/537.36 (KHTML, like Gecko) Chrome/128.0.0.0 Safari/537.36" version="24.7.7">
  <diagram name="Page-1" id="T8cAJCrNwcRAkdu-0ZFn">
    <mxGraphModel dx="1050" dy="596" grid="1" gridSize="10" guides="1" tooltips="1" connect="1" arrows="1" fold="1" page="1" pageScale="1" pageWidth="850" pageHeight="1100" math="0" shadow="0">
      <root>
        <mxCell id="0" />
        <mxCell id="1" parent="0" />
        <mxCell id="7Iob1RZWJFsLRwJdnGMj-22" value="" style="rounded=0;whiteSpace=wrap;html=1;" vertex="1" parent="1">
          <mxGeometry x="10" y="60" width="820" height="480" as="geometry" />
        </mxCell>
        <mxCell id="7Iob1RZWJFsLRwJdnGMj-3" value="" style="whiteSpace=wrap;html=1;aspect=fixed;" vertex="1" parent="1">
          <mxGeometry x="25" y="70" width="410" height="410" as="geometry" />
        </mxCell>
        <mxCell id="7Iob1RZWJFsLRwJdnGMj-4" value="&lt;font style=&quot;font-size: 21px;&quot;&gt;Identifier&lt;/font&gt;" style="rounded=1;whiteSpace=wrap;html=1;" vertex="1" parent="1">
          <mxGeometry x="160" y="100" width="120" height="60" as="geometry" />
        </mxCell>
        <mxCell id="7Iob1RZWJFsLRwJdnGMj-7" value="" style="whiteSpace=wrap;html=1;aspect=fixed;" vertex="1" parent="1">
          <mxGeometry x="125" y="170" width="190" height="190" as="geometry" />
        </mxCell>
        <mxCell id="7Iob1RZWJFsLRwJdnGMj-9" value="" style="edgeStyle=orthogonalEdgeStyle;rounded=0;orthogonalLoop=1;jettySize=auto;html=1;" edge="1" parent="1" source="7Iob1RZWJFsLRwJdnGMj-6" target="7Iob1RZWJFsLRwJdnGMj-8">
          <mxGeometry relative="1" as="geometry" />
        </mxCell>
        <mxCell id="7Iob1RZWJFsLRwJdnGMj-6" value="&lt;font style=&quot;font-size: 21px;&quot;&gt;Purpose&lt;/font&gt;" style="rounded=1;whiteSpace=wrap;html=1;" vertex="1" parent="1">
          <mxGeometry x="160" y="190" width="120" height="60" as="geometry" />
        </mxCell>
        <mxCell id="7Iob1RZWJFsLRwJdnGMj-8" value="&lt;font style=&quot;font-size: 18px;&quot;&gt;Preferences&lt;/font&gt;" style="rounded=1;whiteSpace=wrap;html=1;" vertex="1" parent="1">
          <mxGeometry x="160" y="290" width="120" height="60" as="geometry" />
        </mxCell>
        <mxCell id="7Iob1RZWJFsLRwJdnGMj-10" value="&lt;font style=&quot;font-size: 21px;&quot;&gt;Data Elements&lt;/font&gt;" style="rounded=1;whiteSpace=wrap;html=1;" vertex="1" parent="1">
          <mxGeometry x="160" y="380" width="120" height="60" as="geometry" />
        </mxCell>
        <mxCell id="7Iob1RZWJFsLRwJdnGMj-11" value="&lt;font style=&quot;font-size: 26px;&quot;&gt;Collection Point&lt;/font&gt;" style="text;html=1;align=center;verticalAlign=middle;whiteSpace=wrap;rounded=0;" vertex="1" parent="1">
          <mxGeometry x="95" y="60" width="270" height="50" as="geometry" />
        </mxCell>
        <mxCell id="7Iob1RZWJFsLRwJdnGMj-12" value="&lt;font style=&quot;font-size: 18px;&quot;&gt;Transaction 1&lt;/font&gt;" style="rounded=0;whiteSpace=wrap;html=1;" vertex="1" parent="1">
          <mxGeometry x="700" y="80" width="120" height="60" as="geometry" />
        </mxCell>
        <mxCell id="7Iob1RZWJFsLRwJdnGMj-13" value="&lt;font style=&quot;font-size: 18px;&quot;&gt;Transaction 2&lt;/font&gt;" style="rounded=0;whiteSpace=wrap;html=1;" vertex="1" parent="1">
          <mxGeometry x="700" y="170" width="120" height="60" as="geometry" />
        </mxCell>
        <mxCell id="7Iob1RZWJFsLRwJdnGMj-15" style="edgeStyle=orthogonalEdgeStyle;rounded=0;orthogonalLoop=1;jettySize=auto;html=1;entryX=0;entryY=0.5;entryDx=0;entryDy=0;" edge="1" parent="1" source="7Iob1RZWJFsLRwJdnGMj-14" target="7Iob1RZWJFsLRwJdnGMj-12">
          <mxGeometry relative="1" as="geometry" />
        </mxCell>
        <mxCell id="7Iob1RZWJFsLRwJdnGMj-16" style="edgeStyle=orthogonalEdgeStyle;rounded=0;orthogonalLoop=1;jettySize=auto;html=1;entryX=0;entryY=0.5;entryDx=0;entryDy=0;" edge="1" parent="1" source="7Iob1RZWJFsLRwJdnGMj-14" target="7Iob1RZWJFsLRwJdnGMj-13">
          <mxGeometry relative="1" as="geometry" />
        </mxCell>
        <mxCell id="7Iob1RZWJFsLRwJdnGMj-14" value="&lt;font style=&quot;font-size: 18px;&quot;&gt;Receipt&lt;/font&gt;" style="rounded=0;whiteSpace=wrap;html=1;" vertex="1" parent="1">
          <mxGeometry x="460" y="130" width="120" height="60" as="geometry" />
        </mxCell>
        <mxCell id="7Iob1RZWJFsLRwJdnGMj-17" value="&lt;font style=&quot;font-size: 18px;&quot;&gt;OneTrust&lt;/font&gt;" style="shape=cylinder3;whiteSpace=wrap;html=1;boundedLbl=1;backgroundOutline=1;size=15;" vertex="1" parent="1">
          <mxGeometry x="480" y="322.5" width="90" height="110" as="geometry" />
        </mxCell>
        <mxCell id="7Iob1RZWJFsLRwJdnGMj-18" style="edgeStyle=orthogonalEdgeStyle;rounded=0;orthogonalLoop=1;jettySize=auto;html=1;entryX=0;entryY=0.5;entryDx=0;entryDy=0;entryPerimeter=0;" edge="1" parent="1" source="7Iob1RZWJFsLRwJdnGMj-3" target="7Iob1RZWJFsLRwJdnGMj-17">
          <mxGeometry relative="1" as="geometry" />
        </mxCell>
        <mxCell id="7Iob1RZWJFsLRwJdnGMj-20" style="edgeStyle=orthogonalEdgeStyle;rounded=0;orthogonalLoop=1;jettySize=auto;html=1;entryX=1;entryY=0.5;entryDx=0;entryDy=0;entryPerimeter=0;" edge="1" parent="1" source="7Iob1RZWJFsLRwJdnGMj-19" target="7Iob1RZWJFsLRwJdnGMj-17">
          <mxGeometry relative="1" as="geometry">
            <mxPoint x="580" y="382.5" as="targetPoint" />
          </mxGeometry>
        </mxCell>
        <mxCell id="7Iob1RZWJFsLRwJdnGMj-19" value="&lt;font style=&quot;font-size: 20px;&quot;&gt;Preference Center&lt;/font&gt;" style="whiteSpace=wrap;html=1;aspect=fixed;" vertex="1" parent="1">
          <mxGeometry x="630" y="295" width="165" height="165" as="geometry" />
        </mxCell>
        <mxCell id="7Iob1RZWJFsLRwJdnGMj-23" value="&lt;font style=&quot;font-size: 26px;&quot;&gt;Consent Mgmt&lt;/font&gt;" style="text;html=1;align=center;verticalAlign=middle;whiteSpace=wrap;rounded=0;" vertex="1" parent="1">
          <mxGeometry x="270" y="490" width="270" height="50" as="geometry" />
        </mxCell>
        <mxCell id="7Iob1RZWJFsLRwJdnGMj-24" value="" style="rounded=0;whiteSpace=wrap;html=1;" vertex="1" parent="1">
          <mxGeometry x="25" y="640" width="810" height="210" as="geometry" />
        </mxCell>
        <mxCell id="7Iob1RZWJFsLRwJdnGMj-25" value="&lt;font style=&quot;font-size: 26px;&quot;&gt;Integrations&lt;/font&gt;" style="text;html=1;align=center;verticalAlign=middle;whiteSpace=wrap;rounded=0;" vertex="1" parent="1">
          <mxGeometry x="280" y="640" width="270" height="50" as="geometry" />
        </mxCell>
        <mxCell id="7Iob1RZWJFsLRwJdnGMj-26" style="edgeStyle=orthogonalEdgeStyle;rounded=0;orthogonalLoop=1;jettySize=auto;html=1;entryX=0.492;entryY=0.002;entryDx=0;entryDy=0;entryPerimeter=0;" edge="1" parent="1" source="7Iob1RZWJFsLRwJdnGMj-22" target="7Iob1RZWJFsLRwJdnGMj-24">
          <mxGeometry relative="1" as="geometry">
            <Array as="points">
              <mxPoint x="420" y="575" />
              <mxPoint x="424" y="575" />
            </Array>
          </mxGeometry>
        </mxCell>
        <mxCell id="7Iob1RZWJFsLRwJdnGMj-27" value="&lt;font style=&quot;font-size: 18px;&quot;&gt;Event&lt;/font&gt;" style="edgeLabel;html=1;align=center;verticalAlign=middle;resizable=0;points=[];" vertex="1" connectable="0" parent="7Iob1RZWJFsLRwJdnGMj-26">
          <mxGeometry x="-0.4426" relative="1" as="geometry">
            <mxPoint y="11" as="offset" />
          </mxGeometry>
        </mxCell>
        <mxCell id="7Iob1RZWJFsLRwJdnGMj-30" style="edgeStyle=orthogonalEdgeStyle;rounded=0;orthogonalLoop=1;jettySize=auto;html=1;" edge="1" parent="1" source="7Iob1RZWJFsLRwJdnGMj-28" target="7Iob1RZWJFsLRwJdnGMj-29">
          <mxGeometry relative="1" as="geometry" />
        </mxCell>
        <mxCell id="7Iob1RZWJFsLRwJdnGMj-28" value="&lt;div style=&quot;box-sizing: border-box; -webkit-font-smoothing: antialiased; align-content: center; align-items: center; display: flex; flex-grow: 0; min-width: 1px;&quot; class=&quot;vt-page-header__container&quot;&gt;&lt;div style=&quot;box-sizing: border-box; -webkit-font-smoothing: antialiased; column-gap: 1.6rem; display: grid; flex: 1 1 0%; grid-template-columns: auto 1fr; min-width: 0px;&quot; class=&quot;vt-page-header__head&quot;&gt;&lt;h1 style=&quot;box-sizing: border-box; font-size: 16px; margin: 0px; padding: 0px; -webkit-font-smoothing: antialiased; align-self: center; color: var(--vt-dark-text); max-width: 100%; overflow: hidden; text-overflow: ellipsis; vertical-align: middle; text-wrap: nowrap; width: 87.3px;&quot; title=&quot;Credentials&quot; class=&quot;vt-page-header__title&quot;&gt;Credentials&lt;/h1&gt;&lt;/div&gt;&lt;/div&gt;" style="rounded=1;whiteSpace=wrap;html=1;" vertex="1" parent="1">
          <mxGeometry x="120" y="730" width="120" height="60" as="geometry" />
        </mxCell>
        <mxCell id="7Iob1RZWJFsLRwJdnGMj-29" value="&lt;font style=&quot;font-size: 18px;&quot;&gt;Connections&lt;br&gt;(Workflows)&lt;/font&gt;" style="rounded=1;whiteSpace=wrap;html=1;" vertex="1" parent="1">
          <mxGeometry x="520" y="730" width="120" height="60" as="geometry" />
        </mxCell>
      </root>
    </mxGraphModel>
  </diagram>
</mxfile>
